<?xml version="1.0" encoding="UTF-8" standalone="no"?>
<!-- Generator: Adobe Illustrator 18.1.1, SVG Export Plug-In . SVG Version: 6.00 Build 0)  -->

<svg
   xmlns:dc="http://purl.org/dc/elements/1.1/"
   xmlns:cc="http://creativecommons.org/ns#"
   xmlns:rdf="http://www.w3.org/1999/02/22-rdf-syntax-ns#"
   xmlns:svg="http://www.w3.org/2000/svg"
   xmlns="http://www.w3.org/2000/svg"
   xmlns:sodipodi="http://sodipodi.sourceforge.net/DTD/sodipodi-0.dtd"
   xmlns:inkscape="http://www.inkscape.org/namespaces/inkscape"
   version="1.1"
   id="Layer_1"
   x="0px"
   y="0px"
   viewBox="0 0 167.2 249.4"
   enable-background="new 0 0 167.2 249.4"
   xml:space="preserve"
   inkscape:version="0.91 r13725"
   sodipodi:docname="0.svg"><metadata
     id="metadata4541"><rdf:RDF><cc:Work
         rdf:about=""><dc:format>image/svg+xml</dc:format><dc:type
           rdf:resource="http://purl.org/dc/dcmitype/StillImage" /><dc:title></dc:title></cc:Work></rdf:RDF></metadata><defs
     id="defs4539" /><sodipodi:namedview
     pagecolor="#ffffff"
     bordercolor="#666666"
     borderopacity="1"
     objecttolerance="10"
     gridtolerance="10"
     guidetolerance="10"
     inkscape:pageopacity="0"
     inkscape:pageshadow="2"
     inkscape:window-width="1301"
     inkscape:window-height="744"
     id="namedview4537"
     showgrid="false"
     inkscape:zoom="0.94627107"
     inkscape:cx="83.599998"
     inkscape:cy="124.7"
     inkscape:window-x="65"
     inkscape:window-y="24"
     inkscape:window-maximized="1"
     inkscape:current-layer="Layer_1" /><g
     id="g4322"><rect
       x="-18.2"
       y="23"
       fill="#FFFFFF"
       width="29.1"
       height="29.1"
       id="rect4324" /><rect
       x="10.9"
       y="23"
       fill="#D97983"
       width="29.1"
       height="29.1"
       id="rect4326" /><rect
       x="40"
       y="23"
       fill="#FFFFFF"
       width="29.1"
       height="29.1"
       id="rect4328" /><rect
       x="69.1"
       y="23"
       fill="#D97983"
       width="29.1"
       height="29.1"
       id="rect4330" /><rect
       x="98.2"
       y="23"
       fill="#FFFFFF"
       width="29.1"
       height="29.1"
       id="rect4332" /><rect
       x="127.2"
       y="23"
       fill="#D97983"
       width="29.1"
       height="29.1"
       id="rect4334" /><rect
       x="156.3"
       y="23"
       fill="#FFFFFF"
       width="29.1"
       height="29.1"
       id="rect4336" /><rect
       x="-18.2"
       y="52"
       fill="#D97983"
       width="29.1"
       height="29.1"
       id="rect4338" /><rect
       x="10.9"
       y="52"
       fill="#C62127"
       width="29.1"
       height="29.1"
       id="rect4340" /><rect
       x="40"
       y="52"
       fill="#D97983"
       width="29.1"
       height="29.1"
       id="rect4342" /><rect
       x="69.1"
       y="52"
       fill="#C62127"
       width="29.1"
       height="29.1"
       id="rect4344" /><rect
       x="98.2"
       y="52"
       fill="#D97983"
       width="29.1"
       height="29.1"
       id="rect4346" /><rect
       x="127.2"
       y="52"
       fill="#C62127"
       width="29.1"
       height="29.1"
       id="rect4348" /><rect
       x="156.3"
       y="52"
       fill="#D97983"
       width="29.1"
       height="29.1"
       id="rect4350" /><g
       id="g4352"><rect
         x="-18.2"
         y="-6.1"
         fill="#D97983"
         width="29.1"
         height="29.1"
         id="rect4354" /><rect
         x="10.9"
         y="-6.1"
         fill="#C62127"
         width="29.1"
         height="29.1"
         id="rect4356" /><rect
         x="40"
         y="-6.1"
         fill="#D97983"
         width="29.1"
         height="29.1"
         id="rect4358" /><rect
         x="69.1"
         y="-6.1"
         fill="#C62127"
         width="29.1"
         height="29.1"
         id="rect4360" /><rect
         x="98.2"
         y="-6.1"
         fill="#D97983"
         width="29.1"
         height="29.1"
         id="rect4362" /><rect
         x="127.2"
         y="-6.1"
         fill="#C62127"
         width="29.1"
         height="29.1"
         id="rect4364" /><rect
         x="156.3"
         y="-6.1"
         fill="#D97983"
         width="29.1"
         height="29.1"
         id="rect4366" /></g><g
       id="g4368"><rect
         x="-18.2"
         y="226.5"
         fill="#D97983"
         width="29.1"
         height="29.1"
         id="rect4370" /><rect
         x="10.9"
         y="226.5"
         fill="#C62127"
         width="29.1"
         height="29.1"
         id="rect4372" /><rect
         x="40"
         y="226.5"
         fill="#D97983"
         width="29.1"
         height="29.1"
         id="rect4374" /><rect
         x="69.1"
         y="226.5"
         fill="#C62127"
         width="29.1"
         height="29.1"
         id="rect4376" /><rect
         x="98.2"
         y="226.5"
         fill="#D97983"
         width="29.1"
         height="29.1"
         id="rect4378" /><rect
         x="127.2"
         y="226.5"
         fill="#C62127"
         width="29.1"
         height="29.1"
         id="rect4380" /><rect
         x="156.3"
         y="226.5"
         fill="#D97983"
         width="29.1"
         height="29.1"
         id="rect4382" /></g><rect
       x="-18.2"
       y="81.1"
       fill="#FFFFFF"
       width="29.1"
       height="29.1"
       id="rect4384" /><rect
       x="10.9"
       y="81.1"
       fill="#D97983"
       width="29.1"
       height="29.1"
       id="rect4386" /><rect
       x="40"
       y="81.1"
       fill="#FFFFFF"
       width="29.1"
       height="29.1"
       id="rect4388" /><rect
       x="69.1"
       y="81.1"
       fill="#D97983"
       width="29.1"
       height="29.1"
       id="rect4390" /><rect
       x="98.2"
       y="81.1"
       fill="#FFFFFF"
       width="29.1"
       height="29.1"
       id="rect4392" /><rect
       x="127.2"
       y="81.1"
       fill="#D97983"
       width="29.1"
       height="29.1"
       id="rect4394" /><rect
       x="156.3"
       y="81.1"
       fill="#FFFFFF"
       width="29.1"
       height="29.1"
       id="rect4396" /><rect
       x="-18.2"
       y="110.2"
       fill="#D97983"
       width="29.1"
       height="29.1"
       id="rect4398" /><rect
       x="10.9"
       y="110.2"
       fill="#C62127"
       width="29.1"
       height="29.1"
       id="rect4400" /><rect
       x="40"
       y="110.2"
       fill="#D97983"
       width="29.1"
       height="29.1"
       id="rect4402" /><rect
       x="69.1"
       y="110.2"
       fill="#C62127"
       width="29.1"
       height="29.1"
       id="rect4404" /><rect
       x="98.2"
       y="110.2"
       fill="#D97983"
       width="29.1"
       height="29.1"
       id="rect4406" /><rect
       x="127.2"
       y="110.2"
       fill="#C62127"
       width="29.1"
       height="29.1"
       id="rect4408" /><rect
       x="156.3"
       y="110.2"
       fill="#D97983"
       width="29.1"
       height="29.1"
       id="rect4410" /><rect
       x="-18.2"
       y="139.3"
       fill="#FFFFFF"
       width="29.1"
       height="29.1"
       id="rect4412" /><rect
       x="10.9"
       y="139.3"
       fill="#D97983"
       width="29.1"
       height="29.1"
       id="rect4414" /><rect
       x="40"
       y="139.3"
       fill="#FFFFFF"
       width="29.1"
       height="29.1"
       id="rect4416" /><rect
       x="69.1"
       y="139.3"
       fill="#D97983"
       width="29.1"
       height="29.1"
       id="rect4418" /><rect
       x="98.2"
       y="139.3"
       fill="#FFFFFF"
       width="29.1"
       height="29.1"
       id="rect4420" /><rect
       x="127.2"
       y="139.3"
       fill="#D97983"
       width="29.1"
       height="29.1"
       id="rect4422" /><rect
       x="156.3"
       y="139.3"
       fill="#FFFFFF"
       width="29.1"
       height="29.1"
       id="rect4424" /><rect
       x="-18.2"
       y="168.3"
       fill="#D97983"
       width="29.1"
       height="29.1"
       id="rect4426" /><rect
       x="10.9"
       y="168.3"
       fill="#C62127"
       width="29.1"
       height="29.1"
       id="rect4428" /><rect
       x="40"
       y="168.3"
       fill="#D97983"
       width="29.1"
       height="29.1"
       id="rect4430" /><rect
       x="69.1"
       y="168.3"
       fill="#C62127"
       width="29.1"
       height="29.1"
       id="rect4432" /><rect
       x="98.2"
       y="168.3"
       fill="#D97983"
       width="29.1"
       height="29.1"
       id="rect4434" /><rect
       x="127.2"
       y="168.3"
       fill="#C62127"
       width="29.1"
       height="29.1"
       id="rect4436" /><rect
       x="156.3"
       y="168.3"
       fill="#D97983"
       width="29.1"
       height="29.1"
       id="rect4438" /><rect
       x="-18.2"
       y="197.4"
       fill="#FFFFFF"
       width="29.1"
       height="29.1"
       id="rect4440" /><rect
       x="10.9"
       y="197.4"
       fill="#D97983"
       width="29.1"
       height="29.1"
       id="rect4442" /><rect
       x="40"
       y="197.4"
       fill="#FFFFFF"
       width="29.1"
       height="29.1"
       id="rect4444" /><rect
       x="69.1"
       y="197.4"
       fill="#D97983"
       width="29.1"
       height="29.1"
       id="rect4446" /><rect
       x="98.2"
       y="197.4"
       fill="#FFFFFF"
       width="29.1"
       height="29.1"
       id="rect4448" /><g
       id="g4450"><rect
         x="127.2"
         y="197.4"
         fill="#D97983"
         width="29.1"
         height="29.1"
         id="rect4452" /><rect
         x="156.3"
         y="197.4"
         fill="#FFFFFF"
         width="29.1"
         height="29.1"
         id="rect4454" /></g></g><g
     id="g4456"><ellipse
       fill="#F1F2F2"
       cx="83.6"
       cy="152.7"
       rx="64.6"
       ry="25.9"
       id="ellipse4458" /><ellipse
       fill="#D1D3D4"
       cx="84.3"
       cy="153"
       rx="45.4"
       ry="13.1"
       id="ellipse4460" /><path
       fill="#74AF60"
       d="M110.3,148.6c0,0-1.5-6.8,0.8-11.1c0,0,0.2,0.8,0.4,0.8c0.2,0,0.1-2,0.5-2.7c0.4-0.6,1.7-1.1,1.7-1.1   s-0.4,0.7-0.2,0.8c0.2,0.1,1.4-1.7,1.9-1.9c0,0,0,0.9,0.2,0.6c0.2-0.3,1.2-1.6,2.1-1.8c0,0-0.2,0.8,0,0.9c0.2,0,1.1-1.6,1.8-1.8   c0.7-0.2,1.5-0.6,1.8-0.9c0,0,0,0.7,0.3,0.7c0.3,0,0.9-0.7,1-1.3s2.2-1.7,2.2-1.7s-0.2,1.2,0,1.1c0.2,0,0.8-1,0.9-1.5   c0.2-0.5,1.4-1.2,1.6-1.5c0,0,0.3,1.2,0.5,1.1c0.2-0.1,0.4-0.8,1.1-1.5c0.7-0.7,1.9-1.2,1.9-1.2s0,0.8,0.2,0.7   c0.2-0.1,0.1-0.7,0.1-0.7s0.9-0.4,1.1-0.3s1.5,2.3,1.3,3.6l0.5-0.2c0,0,0.8,3,0,4.5c0,0-0.2,0.4,0.2,0.4c0,0,0.6,1.9-0.7,4.4   c0,0-0.5,1.5-0.5,2.2s-0.7,1.5-0.9,1.7c-0.2,0.2-0.8,1.8-1,2.7c-0.2,0.9-1.2,2.9-3.4,4c-2.2,1-2.7,2.6-3.3,3.2   S118.7,155.9,110.3,148.6z"
       id="path4462" /><path
       fill="#89C97F"
       d="M112,151c0,0,4.1,4.1,8.1,4.3c0,0-0.5-0.5-0.4-0.6c0.1-0.1,1.5,0.8,2.1,0.8c0.6,0,1.5-0.7,1.5-0.7   s-0.6,0-0.6-0.2c0-0.2,1.8-0.3,2.1-0.5c0,0-0.6-0.4-0.3-0.4c0.3,0,1.6-0.1,2.2-0.7c0,0-0.7-0.2-0.6-0.4c0.1-0.2,1.6-0.1,2.1-0.5   c0.4-0.4,1.1-0.8,1.4-0.8c0,0-0.5-0.3-0.3-0.5c0.2-0.2,0.9-0.3,1.4-0.1c0.5,0.2,2.1-0.8,2.1-0.8s-0.9-0.4-0.8-0.5   c0.1-0.1,1-0.1,1.4,0c0.4,0.1,1.5-0.4,1.7-0.5c0,0-0.7-0.7-0.5-0.8c0.2-0.1,0.7,0.1,1.6-0.1s1.7-0.8,1.7-0.8s-0.6-0.3-0.4-0.4   c0.2-0.1,0.6,0.2,0.6,0.2s0.7-0.5,0.7-0.7c0.1-0.2-0.9-2-2-2.5l0.4-0.3c0,0-1.7-1.9-3.2-2c0,0-0.4-0.1-0.2-0.3c0,0-1-1.3-3.4-1.4   c0,0-1.3-0.3-1.8-0.6c-0.5-0.3-1.3-0.1-1.6-0.1c-0.3,0.1-1.6-0.2-2.3-0.5c-0.7-0.2-2.6-0.4-4.2,0.6c-1.7,1.1-3,0.7-3.7,0.9   C116.2,140.2,110.6,142,112,151z"
       id="path4464" /><path
       fill="#73453D"
       d="M40.8,153.5c0,0,3.7,3.4,7.1,4.9c3.4,1.5,8.8,2.8,10.5,3.7c1.7,0.9,12.8,6.3,14.4,7.1   c1.7,0.8,8.9,4.5,9.8,4.6c0.9,0.2,15.7-4.9,18.3-7.2c2.6-2.3,8.9-4.6,10.5-4.9c1.5-0.3,14.1-5.8,14.8-8.1   C126.9,151.1,40.8,153.5,40.8,153.5z"
       id="path4466" /><polygon
       fill="#73453D"
       points="83.5,105.7 40.8,123.9 40.8,153.5 83.5,173.1 126.2,153.5 126.2,123.9  "
       id="polygon4468" /><polygon
       fill="#543A32"
       points="83.5,105.7 40.8,123.9 83.5,144.5 126.2,123.9  "
       id="polygon4470" /><ellipse
       transform="matrix(0.9121 0.41 -0.41 0.9121 65.3148 -9.3465)"
       fill="#543A32"
       cx="54.5"
       cy="147.6"
       rx="8"
       ry="0.6"
       id="ellipse4472" /><ellipse
       transform="matrix(0.9159 -0.4015 0.4015 0.9159 -52.0823 57.9254)"
       fill="#543A32"
       cx="112.2"
       cy="153.2"
       rx="5.3"
       ry="0.8"
       id="ellipse4474" /><ellipse
       transform="matrix(0.9159 -0.4015 0.4015 0.9159 -50.5756 51.5222)"
       fill="#543A32"
       cx="97.6"
       cy="146.4"
       rx="11.4"
       ry="0.8"
       id="ellipse4476" /><ellipse
       transform="matrix(0.9121 0.41 -0.41 0.9121 70.6423 -11.9726)"
       fill="#543A32"
       cx="63.2"
       cy="158.7"
       rx="12.8"
       ry="0.7"
       id="ellipse4478" /><circle
       fill="#543A32"
       cx="73"
       cy="152.4"
       r="1.5"
       id="circle4480" /><circle
       fill="#543A32"
       cx="99.4"
       cy="152.5"
       r="1.5"
       id="circle4482" /><circle
       fill="#543A32"
       cx="90"
       cy="165.9"
       r="1.5"
       id="circle4484" /><circle
       fill="#543A32"
       cx="117.9"
       cy="134.1"
       r="1.5"
       id="circle4486" /><circle
       fill="#543A32"
       cx="49.2"
       cy="134.5"
       r="1.5"
       id="circle4488" /><path
       fill="#543A32"
       d="M40.8,123.9c0,0,1.7,3.2,5.1,4.8c3.5,1.6,4.8,0.5,6.9,1.6c2.1,1.2,6.7,4,9.2,5.5   c20.1,12.2,26.7,11.3,33.9,3.9c1.4-1.5,3.7-3,5.3-2.1c1.6,0.9,5.1-0.2,5.5-2.1c0.5-1.8,1.2-3.5,2.5-3.5s11.3-2.5,13.6-4.4   c2.3-1.8,3.3-3.9,3.3-3.9H40.8z"
       id="path4490" /><g
       id="g4492"><path
         fill="#A97C50"
         d="M56.9,151c6.6-1.4,10.8,1,11.6,5c0.9,4-1.9,8-8.5,9.4s-12.6-1-15.9-4.1C46.2,157.4,50.3,152.5,56.9,151z"
         id="path4494" /><g
         opacity="0.2"
         id="g4496"><g
           id="g4498"><path
             fill="#762B17"
             d="M61.3,163.4l-0.1-0.4c1.6-0.5,3-1.3,3.9-2.3c0.9-1,1.2-2,1-2.8l0.4-0.1c0.3,1-0.1,2.2-1.1,3.3      C64.4,162,62.9,162.8,61.3,163.4z"
             id="path4500" /></g><g
           id="g4502"><path
             fill="#762B17"
             d="M56.6,162.6l0.1-0.5c0.8,0.1,1.6,0.1,2.2-0.2c0.6-0.3,1-0.7,1.1-1.2l0.5,0.1c-0.1,0.6-0.6,1.2-1.3,1.5      C58.4,162.7,57.5,162.7,56.6,162.6z"
             id="path4504" /></g><g
           id="g4506"><path
             fill="#762B17"
             d="M48.5,158.3l-0.4-0.3c2.5-3,5.8-5,9.3-5.7c3.5-0.7,6.8,0.1,9.2,2.1l-0.3,0.4c-2.3-2-5.5-2.7-8.8-2      C54.2,153.4,51,155.4,48.5,158.3z"
             id="path4508" /></g><g
           id="g4510"><path
             fill="#762B17"
             d="M63.6,159l-0.4-0.2c0.7-1.2,0.2-2.8-1.1-3.4l0.2-0.4C63.8,155.8,64.4,157.6,63.6,159z"
             id="path4512" /></g><g
           id="g4514"><rect
             x="48.2"
             y="162.8"
             transform="matrix(0.9552 0.2958 -0.2958 0.9552 50.4799 -7.6588)"
             fill="#762B17"
             width="4.7"
             height="0.5"
             id="rect4516" /></g><g
           id="g4518"><rect
             x="55.1"
             y="155.4"
             transform="matrix(0.357 0.9341 -0.9341 0.357 181.7456 48.9612)"
             fill="#762B17"
             width="0.5"
             height="2.2"
             id="rect4520" /></g><g
           id="g4522"><rect
             x="56.4"
             y="155.7"
             transform="matrix(0.2501 0.9682 -0.9682 0.2501 196.1419 64.2183)"
             fill="#762B17"
             width="0.5"
             height="6.2"
             id="rect4524" /></g></g></g><g
       id="g4526"><path
         id="spoon_1_"
         fill="#A7A9AC"
         d="M78.3,129.6c7.5,2.3,14-11.4,15.7-16.7c1.5-4.7-3-9.6-3-9.6c-1.1-1.2-1.5-3.5-1-5    c0,0,14.6-38.8,15.3-41c1-3-0.1-6.1-2.3-6.7c-2.2-0.7-4.8,1.2-5.7,4.2C96.7,57,86.6,97.2,86.6,97.2c-0.4,1.6-2.1,3.2-3.7,3.6    c0,0-6.4,1.5-7.9,6.2C73.3,112.2,70.9,127.2,78.3,129.6z" /><ellipse
         transform="matrix(0.9937 0.1118 -0.1118 0.9937 13.6097 -8.1705)"
         opacity="0.2"
         fill="#F1F2F2"
         cx="79.7"
         cy="117.3"
         rx="2.6"
         ry="6.7"
         id="ellipse4529" /></g><circle
       fill="#543A32"
       cx="74"
       cy="129.4"
       r="4.1"
       id="circle4531" /><circle
       fill="#543A32"
       cx="80.4"
       cy="130.2"
       r="3.8"
       id="circle4533" /><circle
       fill="#543A32"
       cx="85.3"
       cy="130.2"
       r="3.2"
       id="circle4535" /></g><flowRoot
     xml:space="preserve"
     id="flowRoot4543"
     style="font-style:normal;font-variant:normal;font-weight:normal;font-stretch:normal;font-size:83.12646484px;line-height:125%;font-family:'Abyssinica SIL';-inkscape-font-specification:'Abyssinica SIL, Normal';text-align:start;letter-spacing:0px;word-spacing:0px;writing-mode:lr-tb;text-anchor:start;fill:#000000;fill-opacity:1;stroke:none;stroke-width:1px;stroke-linecap:butt;stroke-linejoin:miter;stroke-opacity:1"
     transform="matrix(1.1341919,0,0,1,-41.979608,68.690677)"><flowRegion
       id="flowRegion4545"><rect
         id="rect4547"
         width="296.48145"
         height="452.40875"
         x="-0.57835311"
         y="-161.75946" /></flowRegion><flowPara
       id="flowPara4549"
       style="font-style:normal;font-variant:normal;font-weight:normal;font-stretch:normal;font-size:374.0690918px;font-family:'Courier 10 Pitch';-inkscape-font-specification:'Courier 10 Pitch'">0</flowPara></flowRoot></svg>